Coordinates
version=1
nRows=8
nColumns=40
inDegrees=yes

Units are S.I. units (second, meters, Newtons, ...)
Angles are in degrees.

endheader
time	pelvis_tilt	pelvis_list	pelvis_rotation	pelvis_tx	pelvis_ty	pelvis_tz	hip_flexion_r	hip_adduction_r	hip_rotation_r	knee_angle_r	knee_angle_r_beta	ankle_angle_r	subtalar_angle_r	mtp_angle_r	hip_flexion_l	hip_adduction_l	hip_rotation_l	knee_angle_l	knee_angle_l_beta	ankle_angle_l	subtalar_angle_l	mtp_angle_l	lumbar_extension	lumbar_bending	lumbar_rotation	arm_flex_r	arm_add_r	arm_rot_r	elbow_flex_r	pro_sup_r	wrist_flex_r	wrist_dev_r	arm_flex_l	arm_add_l	arm_rot_l	elbow_flex_l	pro_sup_l	wrist_flex_l	wrist_dev_l
     33.71000000	     -2.64903724	     -2.29857319	     -4.38608139	      1.08523252	      0.93181286	      0.43267460	     23.99803167	     -4.42588718	    -12.01096078	     13.04819690	     13.04819690	      3.62823272	      8.06047652	      8.61316633	      2.26055262	     -3.56371467	    -16.16434295	     11.46488374	     11.46488374	     11.97097024	     -5.92420098	    -12.32016744	    -11.24457651	      0.70060503	      0.76241394	    -14.35205845	    -14.45688904	    -14.83235494	     26.79530547	     47.29765675	      0.00000000	      0.00000000	     22.84456749	    -18.76102815	     -4.89539270	     61.52389506	     46.93789423	      0.00000000	      0.00000000
     33.72285714	     -2.78811230	     -2.27449018	     -4.54369141	      1.08669046	      0.93091821	      0.43491617	     23.78541102	     -4.15161762	    -12.10928972	     13.24745785	     13.24745785	      3.64031036	      8.02166346	      8.54153454	      1.88460657	     -3.63883399	    -16.24102580	     11.41170199	     11.41170199	     12.24288848	     -6.03165175	    -12.38724498	    -10.96829412	      0.69267011	      0.77278342	    -14.29017634	    -14.35321841	    -14.82841069	     26.88401356	     47.29200204	      0.00000000	      0.00000000	     22.83520226	    -18.76523901	     -4.96126006	     61.64068113	     46.94519381	      0.00000000	      0.00000000
     33.73571429	     -2.69132898	     -2.20254675	     -4.71216050	      1.08848490	      0.93030404	      0.43728349	     23.46435502	     -3.97970421	    -11.97359510	     13.94306125	     13.94306125	      3.58248012	      7.63296836	      7.64611398	      1.04530981	     -3.59214343	    -16.38696415	     10.99152155	     10.99152155	     12.43391748	     -5.87096042	    -12.25671140	    -11.00156719	      0.67222949	      0.72135672	    -14.21004462	    -14.25082188	    -14.90051100	     27.59236889	     47.24999157	      0.00000000	      0.00000000	     22.36327850	    -18.71032822	     -5.68296672	     62.69097436	     47.01785779	      0.00000000	      0.00000000
     33.74857143	     -2.75241417	     -2.33631897	     -4.79834038	      1.09033346	      0.92952939	      0.43974944	     23.08491249	     -3.59829243	    -12.04214488	     14.40181735	     14.40181735	      3.51245474	      7.44408858	      7.38029261	      0.58733561	     -3.85899176	    -16.35711424	     11.00132232	     11.00132232	     12.70138488	     -5.97224598	    -12.23557952	    -10.80664498	      0.91164229	      0.75133119	    -13.93672736	    -14.10483110	    -14.87767361	     27.80042497	     47.23791308	      0.00000000	      0.00000000	     22.12191925	    -18.54226552	     -5.74498194	     62.77417876	     47.02295063	      0.00000000	      0.00000000
     33.76142857	     -2.73766927	     -2.37029452	     -4.82087980	      1.09239417	      0.92868076	      0.44230997	     22.60800365	     -3.26544118	    -11.56582733	     14.76903294	     14.76903294	      2.21649913	      6.30466122	      3.35473880	      0.14429971	     -4.07770884	    -16.54861272	     11.28578258	     11.28578258	     13.74281268	     -5.40056453	    -10.83506411	    -10.75088228	      1.01250405	      0.19327899	    -13.64442136	    -14.15468276	    -14.53908682	     29.24010818	     47.08579962	      0.00000000	      0.00000000	     20.96500991	    -18.49319492	     -7.60607547	     64.35701167	     47.19752944	      0.00000000	      0.00000000
     33.77428571	     -2.77175892	     -2.50066373	     -4.82440191	      1.09449382	      0.92796397	      0.44489325	     22.21711275	     -2.94697773	    -11.52301317	     15.32744419	     15.32744419	      2.33312021	      6.14204267	      3.13735469	     -0.32414527	     -4.36271273	    -16.49477273	     11.33561493	     11.33561493	     13.99395686	     -5.47023689	    -10.81482300	    -10.56001316	      1.24367860	      0.27349037	    -13.17811077	    -13.96367935	    -14.47028013	     29.41540208	     47.07460662	      0.00000000	      0.00000000	     20.72284948	    -18.18391529	     -7.48971005	     64.24492566	     47.18571726	      0.00000000	      0.00000000
     33.78714286	     -2.75825849	     -2.68638106	     -4.80953971	      1.09661793	      0.92732384	      0.44762940	     21.88423148	     -2.59388835	    -11.41854003	     16.04765407	     16.04765407	      2.54237321	      5.82724058	      2.80706937	     -0.82299272	     -4.72250054	    -16.41642112	     11.43935650	     11.43935650	     14.27413554	     -5.54655927	    -10.70267607	    -10.46578330	      1.54111265	      0.37370470	    -12.60756240	    -13.85031012	    -14.40827019	     29.66326624	     47.06181413	      0.00000000	      0.00000000	     20.41037379	    -17.90260432	     -7.38692417	     64.06978001	     47.17345439	      0.00000000	      0.00000000
     33.80000000	     -2.76159315	     -2.74249009	     -4.75116259	      1.09857273	      0.92656811	      0.45043922	     21.89777646	     -2.35020277	    -10.73881589	     17.21984227	     17.21984227	      2.70433430	      4.45417553	      1.81663567	     -1.06336243	     -5.02961133	    -16.36388517	     11.99151472	     11.99151472	     14.94859640	     -5.46863011	     -9.72491585	    -10.37063857	      1.70264234	      0.08275507	    -11.90289609	    -13.86106505	    -14.22102239	     30.26145404	     47.01698843	      0.00000000	      0.00000000	     20.03005343	    -17.99827943	     -7.45531276	     63.54055858	     47.17080670	      0.00000000	      0.00000000
